# xmcd
#
# Track frame offsets:
# 150
# 21285
# 45443
# 62297
# 79855
# 107495
# 122112
# 156924
# 189415
# 203076
# 220591
# 272917
# 287785
# 320991
#
# Disc length: 4498 seconds
#
#
# Revision: 0
# Processed by: cddbd v1.5.2PL0 Copyright (c) Steve Scherf et al.
# Submitted via: FreeRIP 2.943 
#
DISCID=c611900e
DTITLE=Vol. 39. - 
DYEAR=2005
DGENRE=Punk
TTITLE0=Beam and Cyrus feat. Mc Hammer - U Can't Touch This 2003
TTITLE1=Unlimited - No Limit 2003 (Master Blaster Rmx)
TTITLE2=Floorfilla - Sister Golden Hair
TTITLE3=Cosmic Gate - Human Begins
TTITLE4=Haddaway - What Is Love (Reloaded Mix)
TTITLE5=Future Mind - Drum and Bass
TTITLE6=Ian Van Dahl - Secret Love (Jordan and Baker Mix)
TTITLE7=Jan Wayne - Love Is A Soldier (Club Mix)
TTITLE8=Marc Et Cloude - It's All For Love
TTITLE9=Svenson and Gielen - Beachbreeze
TTITLE10=Master Blaster - The Megamix
TTITLE11=Uniqe - First Time
TTITLE12=Starsplash - Fly Away
TTITLE13=LSG Project - My First Love
EXTD=
EXTT0=
EXTT1=
EXTT2=
EXTT3=
EXTT4=
EXTT5=
EXTT6=
EXTT7=
EXTT8=
EXTT9=
EXTT10=
EXTT11=
EXTT12=
EXTT13=
PLAYORDER=
